<svg width="140" height="63" viewBox="0 0 140 63" fill="none" xmlns="http://www.w3.org/2000/svg">
<path d="M55.16 47.2V41.8H56.56C57.5467 41.8 58.2933 41.5333 58.8 41C59.3067 40.4933 59.56 39.76 59.56 38.8V17.08H65.76V38.6C65.76 40.7067 65.4267 42.3867 64.76 43.64C64.12 44.8933 63.0933 45.8 61.68 46.36C60.2933 46.92 58.5067 47.2 56.32 47.2H55.16ZM56.52 21.8V17.08H65.76V21.8H56.52ZM61.84 14.84C60.64 14.84 59.7467 14.5333 59.16 13.92C58.6 13.28 58.32 12.48 58.32 11.52C58.32 10.5333 58.6 9.73333 59.16 9.12C59.7467 8.48 60.64 8.16 61.84 8.16C63.0667 8.16 63.96 8.48 64.52 9.12C65.08 9.73333 65.36 10.5333 65.36 11.52C65.36 12.48 65.08 13.28 64.52 13.92C63.96 14.5333 63.0667 14.84 61.84 14.84ZM82.1547 39.76C80.2347 39.76 78.528 39.4667 77.0347 38.88C75.5414 38.2667 74.2747 37.44 73.2347 36.4C72.2214 35.36 71.448 34.1733 70.9147 32.84C70.3814 31.48 70.1147 30.0533 70.1147 28.56V27.64C70.1147 26.12 70.3814 24.68 70.9147 23.32C71.4747 21.9333 72.2747 20.72 73.3147 19.68C74.3814 18.64 75.6614 17.8267 77.1547 17.24C78.648 16.6267 80.3147 16.32 82.1547 16.32C84.048 16.32 85.728 16.6267 87.1947 17.24C88.688 17.8267 89.9547 18.64 90.9947 19.68C92.0347 20.72 92.8347 21.9333 93.3947 23.32C93.9547 24.68 94.2347 26.12 94.2347 27.64V28.56C94.2347 30.0533 93.968 31.48 93.4347 32.84C92.9014 34.1733 92.1147 35.36 91.0747 36.4C90.0614 37.44 88.808 38.2667 87.3147 38.88C85.8214 39.4667 84.1014 39.76 82.1547 39.76ZM82.1547 34.36C83.408 34.36 84.448 34.0933 85.2747 33.56C86.1014 33.0267 86.728 32.28 87.1547 31.32C87.608 30.36 87.8347 29.2933 87.8347 28.12C87.8347 26.8667 87.608 25.7733 87.1547 24.84C86.7014 23.88 86.048 23.12 85.1947 22.56C84.368 22 83.3547 21.72 82.1547 21.72C80.9814 21.72 79.968 22 79.1147 22.56C78.2614 23.12 77.608 23.88 77.1547 24.84C76.728 25.7733 76.5147 26.8667 76.5147 28.12C76.5147 29.2933 76.728 30.36 77.1547 31.32C77.5814 32.28 78.2214 33.0267 79.0747 33.56C79.928 34.0933 80.9547 34.36 82.1547 34.36ZM109.381 39.76C107.461 39.76 105.755 39.4667 104.261 38.88C102.768 38.2667 101.501 37.44 100.461 36.4C99.4479 35.36 98.6746 34.1733 98.1413 32.84C97.6079 31.48 97.3413 30.0533 97.3413 28.56V27.64C97.3413 26.12 97.6079 24.68 98.1413 23.32C98.7013 21.9333 99.5013 20.72 100.541 19.68C101.608 18.64 102.888 17.8267 104.381 17.24C105.875 16.6267 107.541 16.32 109.381 16.32C111.275 16.32 112.955 16.6267 114.421 17.24C115.915 17.8267 117.181 18.64 118.221 19.68C119.261 20.72 120.061 21.9333 120.621 23.32C121.181 24.68 121.461 26.12 121.461 27.64V28.56C121.461 30.0533 121.195 31.48 120.661 32.84C120.128 34.1733 119.341 35.36 118.301 36.4C117.288 37.44 116.035 38.2667 114.541 38.88C113.048 39.4667 111.328 39.76 109.381 39.76ZM109.381 34.36C110.635 34.36 111.675 34.0933 112.501 33.56C113.328 33.0267 113.955 32.28 114.381 31.32C114.835 30.36 115.061 29.2933 115.061 28.12C115.061 26.8667 114.835 25.7733 114.381 24.84C113.928 23.88 113.275 23.12 112.421 22.56C111.595 22 110.581 21.72 109.381 21.72C108.208 21.72 107.195 22 106.341 22.56C105.488 23.12 104.835 23.88 104.381 24.84C103.955 25.7733 103.741 26.8667 103.741 28.12C103.741 29.2933 103.955 30.36 104.381 31.32C104.808 32.28 105.448 33.0267 106.301 33.56C107.155 34.0933 108.181 34.36 109.381 34.36ZM126.408 39V16.88C126.408 14.3467 127.128 12.4667 128.568 11.24C130.008 10.0133 132.128 9.4 134.928 9.4H137.728V14.2H134.648C133.928 14.2 133.368 14.4 132.968 14.8C132.568 15.2 132.368 15.76 132.368 16.48V39H126.408ZM123.808 22.2V17.52H138.048V22.2H123.808Z" fill="#F1F5F9"/>
<path d="M99.3522 58L102.58 49.24H104.212L107.548 58H106.612L103.504 49.816L103.996 50.068H102.736L103.252 49.816L100.264 58H99.3522ZM101.08 55.216L101.38 54.388H105.448L105.76 55.216H101.08ZM109.11 58V49.24H110.01V58H109.11ZM108.186 49.972V49.24H110.01V49.972H108.186ZM112.343 60.4V51.652H113.063V54.376L112.847 54.4C112.879 53.76 113.015 53.22 113.255 52.78C113.503 52.34 113.835 52.008 114.251 51.784C114.675 51.552 115.147 51.436 115.667 51.436C116.131 51.436 116.551 51.528 116.927 51.712C117.311 51.888 117.635 52.132 117.899 52.444C118.171 52.748 118.375 53.1 118.511 53.5C118.655 53.892 118.727 54.304 118.727 54.736V54.904C118.727 55.336 118.655 55.752 118.511 56.152C118.367 56.544 118.159 56.896 117.887 57.208C117.623 57.512 117.299 57.756 116.915 57.94C116.539 58.116 116.115 58.204 115.643 58.204C115.139 58.204 114.675 58.092 114.251 57.868C113.835 57.636 113.495 57.296 113.231 56.848C112.975 56.4 112.835 55.848 112.811 55.192L113.243 56.092V60.4H112.343ZM115.523 57.412C116.003 57.412 116.415 57.3 116.759 57.076C117.103 56.844 117.367 56.532 117.551 56.14C117.735 55.74 117.827 55.3 117.827 54.82C117.827 54.324 117.731 53.884 117.539 53.5C117.355 53.108 117.091 52.8 116.747 52.576C116.403 52.344 115.995 52.228 115.523 52.228C115.091 52.228 114.699 52.324 114.347 52.516C113.995 52.708 113.715 52.98 113.507 53.332C113.307 53.676 113.207 54.084 113.207 54.556V55.144C113.207 55.592 113.307 55.988 113.507 56.332C113.715 56.668 113.995 56.932 114.347 57.124C114.699 57.316 115.091 57.412 115.523 57.412ZM120.546 58V49.24H121.446V54.196L121.182 54.4C121.182 53.808 121.266 53.292 121.434 52.852C121.61 52.412 121.87 52.072 122.214 51.832C122.566 51.584 123.006 51.46 123.534 51.46H123.582C124.35 51.46 124.93 51.712 125.322 52.216C125.722 52.72 125.922 53.42 125.922 54.316V58H125.034V54.124C125.034 53.556 124.878 53.108 124.566 52.78C124.254 52.452 123.834 52.288 123.306 52.288C122.738 52.288 122.286 52.472 121.95 52.84C121.614 53.2 121.446 53.676 121.446 54.268V58H120.546ZM132.027 58V56.092H131.883V53.836C131.883 53.364 131.759 53.004 131.511 52.756C131.263 52.5 130.879 52.372 130.359 52.372C130.119 52.372 129.875 52.376 129.627 52.384C129.387 52.392 129.155 52.404 128.931 52.42C128.715 52.428 128.523 52.44 128.355 52.456V51.664C128.531 51.648 128.711 51.632 128.895 51.616C129.079 51.6 129.267 51.592 129.459 51.592C129.659 51.584 129.851 51.58 130.035 51.58C130.683 51.58 131.203 51.66 131.595 51.82C131.995 51.98 132.287 52.232 132.471 52.576C132.655 52.912 132.747 53.36 132.747 53.92V58H132.027ZM129.879 58.168C129.431 58.168 129.035 58.088 128.691 57.928C128.347 57.768 128.079 57.536 127.887 57.232C127.703 56.928 127.611 56.56 127.611 56.128C127.611 55.704 127.707 55.344 127.899 55.048C128.099 54.752 128.383 54.528 128.751 54.376C129.127 54.216 129.579 54.136 130.107 54.136H131.967V54.82H130.047C129.543 54.82 129.155 54.944 128.883 55.192C128.619 55.432 128.487 55.748 128.487 56.14C128.487 56.54 128.627 56.86 128.907 57.1C129.187 57.332 129.567 57.448 130.047 57.448C130.343 57.448 130.627 57.396 130.899 57.292C131.171 57.18 131.399 56.996 131.583 56.74C131.767 56.476 131.867 56.116 131.883 55.66L132.147 56.032C132.115 56.504 132.003 56.9 131.811 57.22C131.619 57.532 131.359 57.768 131.031 57.928C130.703 58.088 130.319 58.168 129.879 58.168Z" fill="#F1F5F9"/>
<rect x="94.3587" y="44.4024" width="44.1951" height="18.1951" rx="6.03659" stroke="#64748B" stroke-width="0.804878"/>
<rect y="6" width="43" height="43" rx="6.14766" fill="#2563EB"/>
<path d="M25.1228 38.3857C26.0876 37.8287 26.4182 36.5949 25.8611 35.6301C25.3041 34.6653 24.0704 34.3348 23.1056 34.8918C22.1408 35.4488 21.8102 36.6825 22.3672 37.6473C22.9243 38.6122 24.158 38.9427 25.1228 38.3857Z" fill="#F8FAFC"/>
<path d="M33.608 33.4868C34.5728 32.9297 34.9033 31.696 34.3463 30.7312C33.7893 29.7664 32.5556 29.4358 31.5908 29.9929C30.6259 30.5499 30.2954 31.7836 30.8524 32.7484C31.4094 33.7132 32.6431 34.0438 33.608 33.4868Z" fill="#F8FAFC"/>
<path d="M6.14764 23.3864L12.3688 23.7876L21.2042 33.3275L31.1868 27.5641L28.7835 17.6381L19.3001 23.1133M21.8936 27.6055L29.8797 22.9947" stroke="#F8FAFC" stroke-width="3.07383" stroke-linecap="round" stroke-linejoin="round"/>
</svg>
