<svg width="42" height="42" viewBox="0 0 42 42" fill="none" xmlns="http://www.w3.org/2000/svg">
<rect width="42" height="42" rx="6.00469" fill="#2563EB"/>
<path d="M24.5389 31.6323C25.4813 31.0883 25.8042 29.8832 25.2601 28.9409C24.716 27.9985 23.511 27.6756 22.5686 28.2197C21.6263 28.7638 21.3034 29.9688 21.8474 30.9112C22.3915 31.8535 23.5965 32.1764 24.5389 31.6323Z" fill="#F8FAFC"/>
<path d="M32.827 26.8474C33.7694 26.3033 34.0923 25.0983 33.5482 24.156C33.0041 23.2136 31.7991 22.8907 30.8567 23.4348C29.9143 23.9789 29.5915 25.1839 30.1355 26.1262C30.6796 27.0686 31.8846 27.3915 32.827 26.8474Z" fill="#F8FAFC"/>
<path d="M6.00488 16.9819L12.0814 17.3738L20.7113 26.6919L30.4617 21.0625L28.1143 11.3673L18.8515 16.7153M21.3847 21.1029L29.185 16.5994" stroke="#F8FAFC" stroke-width="3.00235" stroke-linecap="round" stroke-linejoin="round"/>
</svg>
